# xmcd
#
# Track frame offsets: 
#        150
#        15915
#        51407
#        77947
#        107782
#        133740
#        152120
#        186452
#        205200
#        222452
#
# Disc length: 3345 seconds
#
# Revision: 1
# Processed by: cddbd v1.5.2PL0 Copyright (c) Steve Scherf et al.
# Submitted via: ExactAudioCopyFreeDBPlugin 1.0
#
DISCID=920d0f0a
DTITLE=Hall and Oates - Extended Versions
DYEAR=2004
DGENRE=Country
TTITLE0=Rich Girl
TTITLE1=I can't Go For That (No Can Do)
TTITLE2=Possession Obsession
TTITLE3=Adult Education
TTITLE4=One On One
TTITLE5=When Something Is Wrong With My Baby
TTITLE6=Sara Smile
TTITLE7=Room To Breathe
TTITLE8=The Emptyness
TTITLE9=Abandonded Luncheonette
EXTD=
EXTT0=
EXTT1=
EXTT2=
EXTT3=
EXTT4=
EXTT5=
EXTT6=
EXTT7=
EXTT8=
EXTT9=
PLAYORDER=
